# xmcd CD database file
#
# Track frame offsets:
#	150
#	17625
#	44070
#	60716
#	81559
#	104686
#	118202
#	140477
#	157413
#	180968
#	189612
#	207077
#	225920
#	246307
#
# Disc length: 3432 seconds
#
# Revision: 0
# Processed by: cddbd v1.5PL3 Copyright (c) Steve Scherf et al.
# Submitted via: CDex 1.51
#
DISCID=cd0d660e
DTITLE=Orkest Polytour - Django Chante
DYEAR=1999
DGENRE=Jazz
TTITLE0=Swing reverie (Swing 42)
TTITLE1=Que reste-t-il de nos amours
TTITLE2=Rivalite
TTITLE3=Billets Doux
TTITLE4=Nuages
TTITLE5=Pres de vous (Blue Skies)
TTITLE6=Larmes (Tears)
TTITLE7=Je t'aime (Swing 39)
TTITLE8=Melodie au Crepuscule
TTITLE9=Chez Jacquet
TTITLE10=Douce Ambience
TTITLE11=Manoir de mes Reves (Djangos Castle)
TTITLE12=Tout le jour, toute la nuit (Night and Day)
TTITLE13=Dans l'immense Sahara (le Sheik)
EXTD=YEAR: 1999
EXTT0=
EXTT1=
EXTT2=
EXTT3=
EXTT4=
EXTT5=
EXTT6=
EXTT7=
EXTT8=
EXTT9=
EXTT10=
EXTT11=
EXTT12=
EXTT13=
PLAYORDER=
